# xmcd
#
# Track frame offsets:
# 150
# 9056
# 26104
# 46146
# 49619
# 59097
# 88222
# 97700
# 122303
# 151973
# 175281
# 183515
# 202446
# 227204
# 237856
# 256819
#
# Disc length: 3704 seconds
#
# Revision: 0
# Processed by: cddbd v1.4PL0 Copyright (c) Steve Scherf et al.
# Submitted via: Audion 2.6.0 (http://www.panic.com/audion/)
#
DISCID=cc0e7610
DTITLE=Erykah Badu - Baduizm
DYEAR=1900
DGENRE=
TTITLE0=Rimshot
TTITLE1=On and On
TTITLE2=Appletree
TTITLE3=Other Side of the Game
TTITLE4=Sometimes
TTITLE5=Next Lifetime
TTITLE6=Afro
TTITLE7=Certainly
TTITLE8=Four Leaf Clover
TTITLE9=No Love
TTITLE10=Drama
TTITLE11=Sometimes
TTITLE12=Certainly (Flipped it)
TTITLE13=Rimshot Outro
TTITLE14=D'Angelo-Erika Badu-Your Precious
TTITLE15=The Roots Feat Erikah Badu- U Got Me
EXTD=
EXTT0=
EXTT1=
EXTT2=
EXTT3=
EXTT4=
EXTT5=
EXTT6=
EXTT7=
EXTT8=
EXTT9=
EXTT10=
EXTT11=
EXTT12=
EXTT13=
EXTT14=
EXTT15=
PLAYORDER=
